<svg width="66" height="90" viewBox="0 0 66 90" fill="none" xmlns="http://www.w3.org/2000/svg">
<mask id="mask0_570_5117" style="mask-type:alpha" maskUnits="userSpaceOnUse" x="0" y="0" width="66" height="90">
<path d="M66 32.8467C66 50.9875 33 90 33 90C33 90 0 50.9875 0 32.8467C0 14.706 14.7746 0 33 0C51.2254 0 66 14.706 66 32.8467Z" fill="#FF574A"/>
</mask>
<g mask="url(#mask0_570_5117)">
<path d="M66 32.8467C66 50.9875 33 90 33 90C33 90 0 50.9875 0 32.8467C0 14.706 14.7746 0 33 0C51.2254 0 66 14.706 66 32.8467Z" fill="#FF574A"/>
<path d="M-83.9395 83.8073C-84.0169 83.6849 -84.0205 83.5263 -83.9478 83.3734L-76.4352 67.1749C-76.3146 66.9141 -75.9961 66.709 -75.7106 66.709H-73.8681C-73.5826 66.709 -73.2641 66.9141 -73.1445 67.1749L-67.5383 79.2916L-61.9331 67.1749C-61.812 66.9141 -61.494 66.709 -61.2085 66.709H-59.366C-59.0795 66.709 -58.762 66.9141 -58.6414 67.1749L-53.0362 79.29L-47.429 67.1749C-47.3084 66.9141 -46.9904 66.709 -46.7054 66.709H-44.864C-44.5779 66.709 -44.2604 66.9141 -44.1388 67.1749L-38.5362 79.2539L-32.948 67.1749C-32.8264 66.9141 -32.5089 66.709 -32.2239 66.709H-30.3655C-30.0789 66.709 -29.7615 66.9141 -29.6403 67.1749L-24.0527 79.2539L-18.449 67.1749C-18.3284 66.9141 -18.0104 66.709 -17.7254 66.709H-15.8825C-15.5975 66.709 -15.28 66.9141 -15.1584 67.1749L-9.55212 79.2906L-3.94744 67.1749C-3.82633 66.9141 -3.50835 66.709 -3.22334 66.709H-1.38037C-1.09589 66.709 -0.776344 66.9141 -0.655235 67.1749L4.94996 79.2916L10.5567 67.1749C10.6639 66.9399 10.9329 66.7586 11.1942 66.7234C11.2179 66.7198 11.2416 66.7105 11.2654 66.71C11.2684 66.71 11.2705 66.709 11.2705 66.709H13.1501C13.4351 66.709 13.7536 66.9141 13.8747 67.1749L19.467 79.2616L25.0573 67.1749C25.1789 66.9141 25.4969 66.709 25.7829 66.709H27.6537C27.9387 66.709 28.2567 66.9141 28.3778 67.1749L33.9696 79.2621L39.5609 67.1749C39.6815 66.9141 40 66.709 40.285 66.709H42.1656L42.1687 66.71C42.1882 66.7105 42.2084 66.7188 42.2285 66.7214C42.4934 66.7518 42.7691 66.9363 42.8799 67.1749L48.4861 79.2916L54.0913 67.1749C54.213 66.9141 54.5304 66.709 54.8149 66.709H56.6579C56.9429 66.709 57.2609 66.9141 57.382 67.1749L62.9882 79.2906L68.5934 67.1749C68.715 66.9141 69.033 66.709 69.318 66.709H71.16C71.4455 66.709 71.764 66.9141 71.8856 67.1749L77.4872 79.2539L83.0764 67.1749C83.1981 66.9141 83.5155 66.709 83.801 66.709H85.659C85.944 66.709 86.2614 66.9141 86.3826 67.1749L91.9728 79.2539L97.5739 67.1749C97.695 66.9141 98.014 66.709 98.299 66.709H100.141C100.427 66.709 100.744 66.9141 100.866 67.1749L106.472 79.2921L112.078 67.1749C112.199 66.9141 112.516 66.709 112.801 66.709H114.644C114.929 66.709 115.247 66.9141 115.368 67.1749L120.974 79.2921L126.444 67.4679L126.383 67.3361C126.367 67.2995 126.419 67.3056 126.506 67.3341L126.579 67.1749C126.701 66.9141 127.019 66.709 127.304 66.709H129.189C129.474 66.709 129.793 66.9141 129.914 67.1749L135.499 79.2451L141.082 67.1749C141.203 66.9141 141.521 66.709 141.806 66.709H143.693C143.978 66.709 144.296 66.9141 144.416 67.1749L150 79.2451L155.584 67.1749C155.705 66.9141 156.025 66.709 156.31 66.709H157V72.0079L151.667 83.5356C151.547 83.796 151.229 84 150.942 84H149.058C148.773 84 148.454 83.796 148.333 83.5356L142.749 71.4644L137.165 83.5356C137.044 83.796 136.725 84 136.44 84H134.556C134.27 84 133.951 83.796 133.831 83.5356L128.225 71.4163L122.619 83.5356C122.498 83.796 122.18 84 121.895 84H120.053C119.768 84 119.45 83.796 119.329 83.5356L113.723 71.4174L108.117 83.5356C107.996 83.796 107.678 84 107.393 84H105.55C105.265 84 104.947 83.796 104.826 83.5356L99.2303 71.4401L93.6339 83.5335C93.5127 83.7959 93.1953 84 92.9108 84H91.0529C90.7663 84 90.4488 83.7959 90.3293 83.5335L84.7297 71.4344L79.1317 83.5335C79.0106 83.7959 78.6927 84 78.4066 84H76.5492C76.2642 84 75.9467 83.7959 75.8251 83.5335L70.2287 71.4401L64.6328 83.5356C64.5122 83.796 64.1937 84 63.9092 84H62.0662C61.7812 84 61.4637 83.796 61.3421 83.5356L55.7369 71.4174L50.1307 83.5356C50.0096 83.796 49.6921 84 49.4071 84H47.5641C47.2796 84 46.9616 83.796 46.8405 83.5356L41.2348 71.4194L41.0452 71.8265L35.6291 83.5356C35.508 83.796 35.1895 84 34.904 84H33.0337C32.7487 84 32.4312 83.796 32.3096 83.5356L26.7173 71.4484L21.1265 83.5356C21.0049 83.796 20.6858 84 20.4014 84H18.5316C18.2466 84 17.9276 83.796 17.8075 83.5356L12.2837 71.5961L12.2013 71.4194L6.59503 83.5356C6.47392 83.796 6.15542 84 5.87041 84H4.0295C3.7445 84 3.42548 83.796 3.30386 83.5356L-2.30186 71.4163L-7.90757 83.5356C-8.02817 83.796 -8.34667 84 -8.63168 84H-10.4726C-10.7591 84 -11.0766 83.796 -11.1982 83.5356L-16.7942 71.4401L-22.3906 83.5335C-22.5102 83.7959 -22.8276 84 -23.1142 84H-24.9721C-25.2561 84 -25.574 83.7959 -25.6952 83.5335L-31.2942 71.4349L-36.8927 83.5335C-37.0138 83.7959 -37.3318 84 -37.6163 84H-39.4752C-39.7602 84 -40.0782 83.7959 -40.1988 83.5335L-45.7947 71.4401L-51.3896 83.5356C-51.5112 83.796 -51.8287 84 -52.1153 84H-53.9567C-54.2422 84 -54.5597 83.796 -54.6803 83.5356L-60.287 71.4189L-65.8938 83.5356C-66.0149 83.796 -66.3323 84 -66.6173 84H-68.4593C-68.7443 84 -69.0633 83.796 -69.1839 83.5356L-74.7901 71.4174L-80.3953 83.5356C-80.517 83.796 -80.8344 84 -81.1194 84H-83.5546C-83.7221 84 -83.8628 83.9292 -83.9395 83.8073ZM-83.9395 63.2378C-84.0169 63.1149 -84.0205 62.9563 -83.9478 62.8034L-76.4352 46.6055C-76.3146 46.3446 -75.9961 46.1395 -75.7106 46.1395H-73.8681C-73.5826 46.1395 -73.2641 46.3446 -73.1445 46.6055L-67.5383 58.7216L-61.9331 46.6055C-61.812 46.3446 -61.494 46.1395 -61.2085 46.1395H-59.366C-59.0795 46.1395 -58.762 46.3446 -58.6414 46.6055L-53.0362 58.7206L-47.429 46.6055C-47.3084 46.3446 -46.9904 46.1395 -46.7054 46.1395H-44.864C-44.5779 46.1395 -44.2604 46.3446 -44.1388 46.6055L-38.5362 58.6844L-32.948 46.6055C-32.8264 46.3446 -32.5089 46.1395 -32.2239 46.1395H-30.3655C-30.0789 46.1395 -29.7615 46.3446 -29.6403 46.6055L-24.0527 58.6844L-18.449 46.6055C-18.3284 46.3446 -18.0104 46.1395 -17.7254 46.1395H-15.8825C-15.5975 46.1395 -15.28 46.3446 -15.1584 46.6055L-9.55212 58.7206L-3.94744 46.6055C-3.82633 46.3446 -3.50835 46.1395 -3.22334 46.1395H-1.38037C-1.09589 46.1395 -0.776344 46.3446 -0.655235 46.6055L4.94996 58.7216L10.5567 46.6055C10.6639 46.3704 10.9329 46.1891 11.1942 46.1534C11.2179 46.1503 11.2416 46.1405 11.2654 46.14C11.2684 46.14 11.2705 46.1395 11.2705 46.1395H13.1501C13.4351 46.1395 13.7536 46.3446 13.8747 46.6055L19.467 58.6916L25.0573 46.6055C25.1789 46.3446 25.4969 46.1395 25.7829 46.1395H27.6537C27.9387 46.1395 28.2567 46.3446 28.3778 46.6055L33.9696 58.6927L39.5609 46.6055C39.6815 46.3446 40 46.1395 40.285 46.1395H42.1656L42.1687 46.14C42.1882 46.1405 42.2084 46.1488 42.2285 46.1514C42.4934 46.1818 42.7691 46.3663 42.8799 46.6055L48.4861 58.7216L54.0913 46.6055C54.213 46.3446 54.5304 46.1395 54.8149 46.1395H56.6579C56.9429 46.1395 57.2609 46.3446 57.382 46.6055L62.9882 58.7211L68.5934 46.6055C68.715 46.3446 69.033 46.1395 69.318 46.1395H71.16C71.4455 46.1395 71.764 46.3446 71.8856 46.6055L77.4872 58.6844L83.0764 46.6055C83.1981 46.3446 83.5155 46.1395 83.801 46.1395H85.659C85.944 46.1395 86.2614 46.3446 86.3826 46.6055L91.9728 58.6844L97.5739 46.6055C97.695 46.3446 98.014 46.1395 98.299 46.1395H100.141C100.427 46.1395 100.744 46.3446 100.866 46.6055L106.472 58.7221L112.078 46.6055C112.199 46.3446 112.516 46.1395 112.801 46.1395H114.644C114.929 46.1395 115.247 46.3446 115.368 46.6055L120.974 58.7221L126.444 46.8979L126.383 46.7666C126.367 46.7294 126.419 46.7356 126.506 46.7641L126.579 46.6055C126.701 46.3446 127.019 46.1395 127.304 46.1395H129.189C129.474 46.1395 129.793 46.3446 129.914 46.6055L135.499 58.6751L141.082 46.6055C141.203 46.3446 141.521 46.1395 141.806 46.1395H143.693C143.978 46.1395 144.296 46.3446 144.416 46.6055L150 58.6751L155.584 46.6055C155.705 46.3446 156.025 46.1395 156.31 46.1395H157V51.4384L151.667 62.9656C151.547 63.2259 151.229 63.4305 150.942 63.4305H149.058C148.773 63.4305 148.454 63.2259 148.333 62.9656L142.749 50.8949L137.165 62.9656C137.044 63.2259 136.725 63.4305 136.44 63.4305H134.556C134.27 63.4305 133.951 63.2259 133.831 62.9656L128.225 50.8469L122.619 62.9656C122.498 63.2259 122.18 63.4305 121.895 63.4305H120.053C119.768 63.4305 119.45 63.2259 119.329 62.9656L113.723 50.8474L108.117 62.9656C107.996 63.2259 107.678 63.4305 107.393 63.4305H105.55C105.265 63.4305 104.947 63.2259 104.826 62.9656L99.2303 50.8706L93.6339 62.9635C93.5127 63.2259 93.1953 63.4305 92.9108 63.4305H91.0529C90.7663 63.4305 90.4488 63.2259 90.3293 62.9635L84.7297 50.8649L79.1317 62.9635C79.0106 63.2259 78.6927 63.4305 78.4066 63.4305H76.5492C76.2642 63.4305 75.9467 63.2259 75.8251 62.9635L70.2287 50.8706L64.6328 62.9656C64.5122 63.2259 64.1937 63.4305 63.9092 63.4305H62.0662C61.7812 63.4305 61.4637 63.2259 61.3421 62.9656L55.7369 50.8479L50.1307 62.9656C50.0096 63.2259 49.6921 63.4305 49.4071 63.4305H47.5641C47.2796 63.4305 46.9616 63.2259 46.8405 62.9656L41.2348 50.85L41.0452 51.2571L35.6291 62.9656C35.508 63.2259 35.1895 63.4305 34.904 63.4305H33.0337C32.7487 63.4305 32.4312 63.2259 32.3096 62.9656L26.7173 50.8789L21.1265 62.9656C21.0049 63.2259 20.6858 63.4305 20.4014 63.4305H18.5316C18.2466 63.4305 17.9276 63.2259 17.8075 62.9656L12.2837 51.0266L12.2013 50.85L6.59503 62.9656C6.47392 63.2259 6.15542 63.4305 5.87041 63.4305H4.0295C3.7445 63.4305 3.42548 63.2259 3.30386 62.9656L-2.30186 50.8469L-7.90757 62.9656C-8.02817 63.2259 -8.34667 63.4305 -8.63168 63.4305H-10.4726C-10.7591 63.4305 -11.0766 63.2259 -11.1982 62.9656L-16.7942 50.8706L-22.3906 62.9635C-22.5102 63.2259 -22.8276 63.4305 -23.1142 63.4305H-24.9721C-25.2561 63.4305 -25.574 63.2259 -25.6952 62.9635L-31.2942 50.8655L-36.8927 62.9635C-37.0138 63.2259 -37.3318 63.4305 -37.6163 63.4305H-39.4752C-39.7602 63.4305 -40.0782 63.2259 -40.1988 62.9635L-45.7947 50.8706L-51.3896 62.9656C-51.5112 63.2259 -51.8287 63.4305 -52.1153 63.4305H-53.9567C-54.2422 63.4305 -54.5597 63.2259 -54.6803 62.9656L-60.287 50.8489L-65.8938 62.9656C-66.0149 63.2259 -66.3323 63.4305 -66.6173 63.4305H-68.4593C-68.7443 63.4305 -69.0633 63.2259 -69.1839 62.9656L-74.7901 50.8474L-80.3953 62.9656C-80.517 63.2259 -80.8344 63.4305 -81.1194 63.4305H-83.5546C-83.7221 63.4305 -83.8628 63.3597 -83.9395 63.2378ZM-83.9395 42.6678C-84.0169 42.5454 -84.0205 42.3868 -83.9478 42.2339L-76.4352 26.036C-76.3146 25.7746 -75.9961 25.5695 -75.7106 25.5695H-73.8681C-73.5826 25.5695 -73.2641 25.7746 -73.1445 26.036L-67.5383 38.1521L-61.9331 26.036C-61.812 25.7746 -61.494 25.5695 -61.2085 25.5695H-59.366C-59.0795 25.5695 -58.762 25.7746 -58.6414 26.036L-53.0362 38.1506L-47.429 26.036C-47.3084 25.7746 -46.9904 25.5695 -46.7054 25.5695H-44.864C-44.5779 25.5695 -44.2604 25.7746 -44.1388 26.036L-38.5362 38.1144L-32.948 26.036C-32.8264 25.7746 -32.5089 25.5695 -32.2239 25.5695H-30.3655C-30.0789 25.5695 -29.7615 25.7746 -29.6403 26.036L-24.0527 38.1144L-18.449 26.036C-18.3284 25.7746 -18.0104 25.5695 -17.7254 25.5695H-15.8825C-15.5975 25.5695 -15.28 25.7746 -15.1584 26.036L-9.55212 38.1511L-3.94744 26.036C-3.82633 25.7746 -3.50835 25.5695 -3.22334 25.5695H-1.38037C-1.09589 25.5695 -0.776344 25.7746 -0.655235 26.036L4.94996 38.1521L10.5567 26.036C10.6639 25.8004 10.9329 25.6191 11.1942 25.5839C11.2179 25.5803 11.2416 25.571 11.2654 25.5705C11.2684 25.5705 11.2705 25.5695 11.2705 25.5695H13.1501C13.4351 25.5695 13.7536 25.7746 13.8747 26.036L19.467 38.1222L25.0573 26.036C25.1789 25.7746 25.4969 25.5695 25.7829 25.5695H27.6537C27.9387 25.5695 28.2567 25.7746 28.3778 26.036L33.9696 38.1227L39.5609 26.036C39.6815 25.7746 40 25.5695 40.285 25.5695H42.1656L42.1687 25.5705C42.1882 25.571 42.2084 25.5793 42.2285 25.5819C42.4934 25.6124 42.7691 25.7968 42.8799 26.036L48.4861 38.1521L54.0913 26.036C54.213 25.7746 54.5304 25.5695 54.8149 25.5695H56.6579C56.9429 25.5695 57.2609 25.7746 57.382 26.036L62.9882 38.1511L68.5934 26.036C68.715 25.7746 69.033 25.5695 69.318 25.5695H71.16C71.4455 25.5695 71.764 25.7746 71.8856 26.036L77.4872 38.1144L83.0764 26.036C83.1981 25.7746 83.5155 25.5695 83.801 25.5695H85.659C85.944 25.5695 86.2614 25.7746 86.3826 26.036L91.9728 38.1144L97.5739 26.036C97.695 25.7746 98.014 25.5695 98.299 25.5695H100.141C100.427 25.5695 100.744 25.7746 100.866 26.036L106.472 38.1526L112.078 26.036C112.199 25.7746 112.516 25.5695 112.801 25.5695H114.644C114.929 25.5695 115.247 25.7746 115.368 26.036L120.974 38.1526L126.444 26.3284L126.383 26.1967C126.367 26.16 126.419 26.1662 126.506 26.1946L126.579 26.036C126.701 25.7746 127.019 25.5695 127.304 25.5695H129.189C129.474 25.5695 129.793 25.7746 129.914 26.036L135.499 38.1056L141.082 26.036C141.203 25.7746 141.521 25.5695 141.806 25.5695H143.693C143.978 25.5695 144.296 25.7746 144.416 26.036L150 38.1056L155.584 26.036C155.705 25.7746 156.025 25.5695 156.31 25.5695H157V30.8684L151.667 42.3961C151.547 42.6565 151.229 42.8605 150.942 42.8605H149.058C148.773 42.8605 148.454 42.6565 148.333 42.3961L142.749 30.3254L137.165 42.3961C137.044 42.6565 136.725 42.8605 136.44 42.8605H134.556C134.27 42.8605 133.951 42.6565 133.831 42.3961L128.225 30.2769L122.619 42.3961C122.498 42.6565 122.18 42.8605 121.895 42.8605H120.053C119.768 42.8605 119.45 42.6565 119.329 42.3961L113.723 30.2779L108.117 42.3961C107.996 42.6565 107.678 42.8605 107.393 42.8605H105.55C105.265 42.8605 104.947 42.6565 104.826 42.3961L99.2303 30.3011L93.6339 42.394C93.5127 42.6565 93.1953 42.8605 92.9108 42.8605H91.0529C90.7663 42.8605 90.4488 42.6565 90.3293 42.394L84.7297 30.2949L79.1317 42.394C79.0106 42.6565 78.6927 42.8605 78.4066 42.8605H76.5492C76.2642 42.8605 75.9467 42.6565 75.8251 42.394L70.2287 30.3011L64.6328 42.3961C64.5122 42.6565 64.1937 42.8605 63.9092 42.8605H62.0662C61.7812 42.8605 61.4637 42.6565 61.3421 42.3961L55.7369 30.2779L50.1307 42.3961C50.0096 42.6565 49.6921 42.8605 49.4071 42.8605H47.5641C47.2796 42.8605 46.9616 42.6565 46.8405 42.3961L41.2348 30.28L41.0452 30.6871L35.6291 42.3961C35.508 42.6565 35.1895 42.8605 34.904 42.8605H33.0337C32.7487 42.8605 32.4312 42.6565 32.3096 42.3961L26.7173 30.3089L21.1265 42.3961C21.0049 42.6565 20.6858 42.8605 20.4014 42.8605H18.5316C18.2466 42.8605 17.9276 42.6565 17.8075 42.3961L12.2837 30.4572L12.2013 30.28L6.59503 42.3961C6.47392 42.6565 6.15542 42.8605 5.87041 42.8605H4.0295C3.7445 42.8605 3.42548 42.6565 3.30386 42.3961L-2.30186 30.2774L-7.90757 42.3961C-8.02817 42.6565 -8.34667 42.8605 -8.63168 42.8605H-10.4726C-10.7591 42.8605 -11.0766 42.6565 -11.1982 42.3961L-16.7942 30.3011L-22.3906 42.394C-22.5102 42.6565 -22.8276 42.8605 -23.1142 42.8605H-24.9721C-25.2561 42.8605 -25.574 42.6565 -25.6952 42.394L-31.2942 30.2955L-36.8927 42.394C-37.0138 42.6565 -37.3318 42.8605 -37.6163 42.8605H-39.4752C-39.7602 42.8605 -40.0782 42.6565 -40.1988 42.394L-45.7947 30.3011L-51.3896 42.3961C-51.5112 42.6565 -51.8287 42.8605 -52.1153 42.8605H-53.9567C-54.2422 42.8605 -54.5597 42.6565 -54.6803 42.3961L-60.287 30.2794L-65.8938 42.3961C-66.0149 42.6565 -66.3323 42.8605 -66.6173 42.8605H-68.4593C-68.7443 42.8605 -69.0633 42.6565 -69.1839 42.3961L-74.7901 30.2779L-80.3953 42.3961C-80.517 42.6565 -80.8344 42.8605 -81.1194 42.8605H-83.5546C-83.7221 42.8605 -83.8628 42.7898 -83.9395 42.6678ZM-83.9395 22.0984C-84.0169 21.9754 -84.0205 21.8173 -83.9478 21.6639L-76.4352 5.46598C-76.3146 5.2051 -75.9961 5 -75.7106 5H-73.8681C-73.5826 5 -73.2641 5.2051 -73.1445 5.46598L-67.5383 17.5821L-61.9331 5.46598C-61.812 5.2051 -61.494 5 -61.2085 5H-59.366C-59.0795 5 -58.762 5.2051 -58.6414 5.46598L-53.0362 17.5811L-47.429 5.46598C-47.3084 5.2051 -46.9904 5 -46.7054 5H-44.864C-44.5779 5 -44.2604 5.2051 -44.1388 5.46598L-38.5362 17.5449L-32.948 5.46598C-32.8264 5.2051 -32.5089 5 -32.2239 5H-30.3655C-30.0789 5 -29.7615 5.2051 -29.6403 5.46598L-24.0527 17.5449L-18.449 5.46598C-18.3284 5.2051 -18.0104 5 -17.7254 5H-15.8825C-15.5975 5 -15.28 5.2051 -15.1584 5.46598L-9.55212 17.5816L-3.94744 5.46598C-3.82633 5.2051 -3.50835 5 -3.22334 5H-1.38037C-1.09589 5 -0.776344 5.2051 -0.655235 5.46598L4.94996 17.5821L10.5567 5.46598C10.6639 5.23093 10.9329 5.04959 11.1942 5.01446C11.2179 5.01085 11.2416 5.00155 11.2654 5.00051C11.2684 5.00051 11.2705 5 11.2705 5H13.1501C13.4351 5 13.7536 5.2051 13.8747 5.46598L19.467 17.5527L25.0573 5.46598C25.1789 5.2051 25.4969 5 25.7829 5H27.6537C27.9387 5 28.2567 5.2051 28.3778 5.46598L33.9696 17.5532L39.5609 5.46598C39.6815 5.2051 40 5 40.285 5H42.1656L42.1687 5.00051C42.1882 5.00155 42.2084 5.00981 42.2285 5.01239C42.4934 5.04287 42.7691 5.22679 42.8799 5.46598L48.4861 17.5821L54.0913 5.46598C54.213 5.2051 54.5304 5 54.8149 5H56.6579C56.9429 5 57.2609 5.2051 57.382 5.46598L62.9882 17.5816L68.5934 5.46598C68.715 5.2051 69.033 5 69.318 5H71.16C71.4455 5 71.764 5.2051 71.8856 5.46598L77.4872 17.5449L83.0764 5.46598C83.1981 5.2051 83.5155 5 83.801 5H85.659C85.944 5 86.2614 5.2051 86.3826 5.46598L91.9728 17.5449L97.5739 5.46598C97.695 5.2051 98.014 5 98.299 5H100.141C100.427 5 100.744 5.2051 100.866 5.46598L106.472 17.5832L112.078 5.46598C112.199 5.2051 112.516 5 112.801 5H114.644C114.929 5 115.247 5.2051 115.368 5.46598L120.974 17.5832L126.444 5.7589L126.383 5.62716C126.367 5.59049 126.419 5.59669 126.506 5.62459L126.579 5.46598C126.701 5.2051 127.019 5 127.304 5H129.189C129.474 5 129.793 5.2051 129.914 5.46598L135.499 17.5361L141.082 5.46598C141.203 5.2051 141.521 5 141.806 5H143.693C143.978 5 144.296 5.2051 144.416 5.46598L150 17.5361L155.584 5.46598C155.705 5.2051 156.025 5 156.31 5H157V10.2989L151.667 21.8266C151.547 22.0865 151.229 22.291 150.942 22.291H149.058C148.773 22.291 148.454 22.0865 148.333 21.8266L142.749 9.75542L137.165 21.8266C137.044 22.0865 136.725 22.291 136.44 22.291H134.556C134.27 22.291 133.951 22.0865 133.831 21.8266L128.225 9.70738L122.619 21.8266C122.498 22.0865 122.18 22.291 121.895 22.291H120.053C119.768 22.291 119.45 22.0865 119.329 21.8266L113.723 9.70842L108.117 21.8266C107.996 22.0865 107.678 22.291 107.393 22.291H105.55C105.265 22.291 104.947 22.0865 104.826 21.8266L99.2303 9.73114L93.6339 21.8245C93.5127 22.0865 93.1953 22.291 92.9108 22.291H91.0529C90.7663 22.291 90.4488 22.0865 90.3293 21.8245L84.7297 9.72546L79.1317 21.8245C79.0106 22.0865 78.6927 22.291 78.4066 22.291H76.5492C76.2642 22.291 75.9467 22.0865 75.8251 21.8245L70.2287 9.73114L64.6328 21.8266C64.5122 22.0865 64.1937 22.291 63.9092 22.291H62.0662C61.7812 22.291 61.4637 22.0865 61.3421 21.8266L55.7369 9.70842L50.1307 21.8266C50.0096 22.0865 49.6921 22.291 49.4071 22.291H47.5641C47.2796 22.291 46.9616 22.0865 46.8405 21.8266L41.2348 9.71048L41.0452 10.1176L35.6291 21.8266C35.508 22.0865 35.1895 22.291 34.904 22.291H33.0337C32.7487 22.291 32.4312 22.0865 32.3096 21.8266L26.7173 9.73941L21.1265 21.8266C21.0049 22.0865 20.6858 22.291 20.4014 22.291H18.5316C18.2466 22.291 17.9276 22.0865 17.8075 21.8266L12.2837 9.88716L12.2013 9.71048L6.59503 21.8266C6.47392 22.0865 6.15542 22.291 5.87041 22.291H4.0295C3.7445 22.291 3.42548 22.0865 3.30386 21.8266L-2.30186 9.70738L-7.90757 21.8266C-8.02817 22.0865 -8.34667 22.291 -8.63168 22.291H-10.4726C-10.7591 22.291 -11.0766 22.0865 -11.1982 21.8266L-16.7942 9.73114L-22.3906 21.8245C-22.5102 22.0865 -22.8276 22.291 -23.1142 22.291H-24.9721C-25.2561 22.291 -25.574 22.0865 -25.6952 21.8245L-31.2942 9.72598L-36.8927 21.8245C-37.0138 22.0865 -37.3318 22.291 -37.6163 22.291H-39.4752C-39.7602 22.291 -40.0782 22.0865 -40.1988 21.8245L-45.7947 9.73114L-51.3896 21.8266C-51.5112 22.0865 -51.8287 22.291 -52.1153 22.291H-53.9567C-54.2422 22.291 -54.5597 22.0865 -54.6803 21.8266L-60.287 9.70945L-65.8938 21.8266C-66.0149 22.0865 -66.3323 22.291 -66.6173 22.291H-68.4593C-68.7443 22.291 -69.0633 22.0865 -69.1839 21.8266L-74.7901 9.70842L-80.3953 21.8266C-80.517 22.0865 -80.8344 22.291 -81.1194 22.291H-83.5546C-83.7221 22.291 -83.8628 22.2203 -83.9395 22.0984Z" fill="#F24C45"/>
<path d="M24.9521 25.8664L17.6992 42.227C17.8208 42.4869 18.1399 42.6914 18.4249 42.6914H20.2658C20.5508 42.6914 20.8693 42.4869 20.9904 42.227L26.5966 30.1109L26.6791 30.2875L32.2029 42.227C32.3229 42.4869 32.6419 42.6914 32.9269 42.6914H34.7967C35.0812 42.6914 35.4002 42.4869 35.5219 42.227L41.1126 30.1398L46.7049 42.227C46.8266 42.4869 47.1441 42.6914 47.4291 42.6914H49.2993H50.5L42.7732 25.8664C42.6521 25.6055 42.3341 25.4004 42.0491 25.4004H40.1783C39.8922 25.4004 39.5742 25.6055 39.4526 25.8664L33.8624 37.9531L28.27 25.8664C28.1489 25.6055 27.8304 25.4004 27.5454 25.4004H25.6659C25.6659 25.4004 25.6638 25.4009 25.6607 25.4009C25.637 25.4019 25.6133 25.4112 25.5896 25.4149C25.3283 25.45 25.0593 25.6313 24.9521 25.8664Z" fill="white"/>
</g>
</svg>
