<svg width="56" height="56" viewBox="0 0 56 56" fill="none" xmlns="http://www.w3.org/2000/svg">
<circle cx="28" cy="28" r="28" fill="#9DE8FF"/>
<circle cx="37.3335" cy="33.333" r="4" fill="#333333"/>
<path d="M27.9998 13.667C28.5521 13.667 28.9998 14.1147 28.9998 14.667V15.0022C29.1482 15.0045 29.2746 15.0093 29.3927 15.0198C31.8062 15.2332 33.7194 17.1464 33.9328 19.5599C33.9523 19.7805 33.9523 20.0304 33.9522 20.3975L33.9522 22.0283C33.9522 27.5249 29.4964 31.9807 23.9998 31.9807C18.2929 31.9807 13.6665 27.3543 13.6665 21.6474L13.6665 20.3975C13.6665 20.0304 13.6664 19.7805 13.6859 19.5599C13.8994 17.1464 15.8126 15.2332 18.2261 15.0198C18.4337 15.0014 18.6672 15.0003 18.9998 15.0003V14.667C18.9998 14.1147 19.4476 13.667 19.9998 13.667C20.5521 13.667 20.9998 14.1147 20.9998 14.667V17.3337C20.9998 17.8859 20.5521 18.3337 19.9998 18.3337C19.4476 18.3337 18.9998 17.8859 18.9998 17.3337V17.0004C18.6486 17.0006 18.5117 17.0023 18.4023 17.012C16.9541 17.14 15.8062 18.288 15.6782 19.7361C15.6675 19.8569 15.6665 20.011 15.6665 20.4495V21.6474C15.6665 26.2498 19.3975 29.9807 23.9998 29.9807C28.3918 29.9807 31.9522 26.4203 31.9522 22.0283V20.4495C31.9522 20.011 31.9512 19.8569 31.9406 19.7361C31.8125 18.288 30.6646 17.14 29.2165 17.012C29.1601 17.007 29.0964 17.0041 28.9998 17.0025V17.3337C28.9998 17.8859 28.5521 18.3337 27.9998 18.3337C27.4476 18.3337 26.9998 17.8859 26.9998 17.3337V14.667C26.9998 14.1147 27.4476 13.667 27.9998 13.667Z" fill="#333333"/>
<path opacity="0.5" d="M23 31.9326V34.6668C23 38.9009 26.4325 42.3334 30.6667 42.3334H31.8431C34.2603 42.3334 36.3675 41.0115 37.4834 39.056C37.8125 38.4793 37.9762 37.8617 38.056 37.2682C37.8216 37.311 37.5801 37.3333 37.3333 37.3333C36.8865 37.3333 36.4568 37.2601 36.0555 37.1249C35.9981 37.481 35.9014 37.7931 35.7464 38.0647C34.9718 39.4221 33.5133 40.3334 31.8431 40.3334H30.6667C27.5371 40.3334 25 37.7964 25 34.6668V31.9308C24.6711 31.9636 24.3375 31.9804 24 31.9804C23.6627 31.9804 23.3291 31.9642 23 31.9326Z" fill="#333333"/>
</svg>
